<svg width="16" height="20" viewBox="0 0 16 20" fill="none" xmlns="http://www.w3.org/2000/svg">
<g id="Vector">
<path d="M13.4448 18.5C14.0923 18.5 14.6895 18.1507 15.007 17.5863V17.5863C15.3427 16.9896 15.3059 16.2527 14.8088 15.7818C13.7393 14.7685 11.4921 13.1875 7.88196 13.1875C4.27832 13.1875 2.14136 14.7628 1.13944 15.7763C0.667005 16.2542 0.649138 16.975 0.978588 17.5607V17.5607" stroke="#828282" stroke-width="1.5" stroke-linecap="round" stroke-linejoin="round"/>
<path d="M8.00001 9.05556C10.0864 9.05556 11.7778 7.36419 11.7778 5.27778C11.7778 3.19137 10.0864 1.5 8.00001 1.5C5.9136 1.5 4.22224 3.19137 4.22224 5.27778C4.22224 7.36419 5.9136 9.05556 8.00001 9.05556Z" stroke="#828282" stroke-width="1.5" stroke-linecap="round" stroke-linejoin="round"/>
</g>
</svg>
